<?xml version="1.0" encoding="UTF-8"?>
<svg id="Logo" xmlns="http://www.w3.org/2000/svg" viewBox="0 0 682.8 106.6">
  <defs>
    <style>
      .cls-1 {
        fill: #4d4d4d;
      }

      .cls-2 {
        fill: #666;
      }
    </style>
  </defs>
  <path class="cls-2" d="M34.77,32.84c0-10.06-2.61-18.06-11.14-18.42-5.93,0-9.52,2.52-10.24,8.89-.09.54-.18,1.08-.18,1.71,0,15.81,30.64,11.59,32.52,31.45.09.9.18,1.71.18,2.7-.36,5.48-4.04,17.61-22.19,17.61-11.68,0-20.39-6.47-20.39-18.24,0-1.44.18-2.96.45-4.67h1.62c-.36,1.53-.45,3.06-.45,4.49,0,10.51,7.37,16.71,17.79,16.71,8.54,0,14.46-4.58,14.46-13.21,0-6.47-4.49-10.51-11.86-13.57-9.43-4.13-20.3-7.55-20.3-18.69,0-7.28,4.49-16.71,18.69-16.71s20.12,8.98,20.12,18.33c0,.54,0,1.17-.09,1.62h-8.98Z"/>
  <path class="cls-2" d="M72.59,76.14V15.14l-17.7,2.16v-3.77l22.55.27,23.72-.27v3.77l-19.05-2.16v61h-9.52Z"/>
  <path class="cls-2" d="M148.78,13.52h9.52v39.71c0,10.33-3.32,23.54-22.28,23.54s-21.92-13.21-21.92-23.54V13.52h9.34v45.1c0,7.28,1.62,16.71,12.67,16.71s12.67-9.34,12.67-16.71V13.52Z"/>
  <path class="cls-2" d="M179.33,13.61h16.26c21.65,0,34.23,12.58,34.23,30.19s-13.39,32.34-34.14,32.34h-16.35V13.61ZM188.76,74.62h6.2c13.48,0,24.62-9.97,24.62-30.46,0-22.55-13.21-29.02-25.52-29.02h-5.3v59.48Z"/>
  <path class="cls-2" d="M248.86,76.14V13.52h9.52v62.62h-9.52Z"/>
  <path class="cls-2" d="M277.07,44.88c0-17.88,13.57-31.98,32.25-31.98s31.89,14.29,31.89,31.98-12.85,31.9-31.89,31.9c-20.66,0-32.25-14.29-32.25-31.9ZM330.98,44.79c0-18.33-7.28-30.55-21.65-30.55s-21.92,13.12-21.92,30.46c0,19.05,6.83,30.64,22.01,30.64s21.56-12.67,21.56-30.55Z"/>
  <path class="cls-1" d="M392.16,76.14V13.52h14.73c15.27,0,21.02,7.28,21.02,14.91s-6.47,13.12-16.8,13.84v.36c12.4,0,20.75,7.64,20.75,16.26,0,10.33-8.27,17.25-22.1,17.25h-17.61ZM406.72,74.71c9.7,0,14.73-6.47,14.73-15.09,0-7.64-4.67-14.91-14.64-16.53l.09-1.35c7.19-.81,11.32-6.29,11.32-13.03s-3.77-13.57-14.11-13.57h-2.34v59.57h4.94Z"/>
  <path class="cls-1" d="M464.57,27.09l-5.66-13.57h9.52l26.86,62.62h-9.97l-6.56-15.54h-25.96l-6.02,15.54h-4.4l22.19-49.06ZM478.14,59.07l-12.85-30.46-11.95,30.46h24.8Z"/>
  <path class="cls-1" d="M510.12,76.14V13.52h9.52v26.77h27.67V13.52h9.52v62.62h-9.52v-34.23h-27.67v34.23h-9.52Z"/>
  <path class="cls-1" d="M593.32,27.09l-5.66-13.57h9.52l26.86,62.62h-9.97l-6.56-15.54h-25.96l-6.02,15.54h-4.4l22.19-49.06ZM606.88,59.07l-12.85-30.46-11.95,30.46h24.8Z"/>
  <path class="cls-1" d="M637.7,76.14V13.52h16.26c12.85,0,21.38,6.83,21.38,16.44,0,7.82-7.01,15-19.5,15.72,0,.09-.09.27-.09.36,19.95,1.53,23,25.34,27.04,30.1h-10.33c-3.14-4.94-5.3-26.86-20.75-29.47v-1.35c9.52-1.53,13.3-8.71,13.3-15.27,0-8.36-5.3-14.91-14.38-14.91h-3.5v61h-9.43Z"/>
</svg>